<?xml version="1.0" encoding="UTF-8" standalone="no"?><!DOCTYPE svg PUBLIC "-//W3C//DTD SVG 1.1//EN" "http://www.w3.org/Graphics/SVG/1.1/DTD/svg11.dtd"><!-- Generated by graphviz version 2.40.1 (20161225.0304)
 --><!-- Title: G Pages: 1 --><svg xmlns="http://www.w3.org/2000/svg" xmlns:xlink="http://www.w3.org/1999/xlink" width="296pt" height="260pt" viewBox="0.00 0.00 296.00 260.00">
<g id="graph0" class="graph" transform="scale(1 1) rotate(0) translate(4 256)">
<title>G</title>
<polygon fill="#ffffff" stroke="transparent" points="-4,4 -4,-256 292,-256 292,4 -4,4"/>
<!-- a0 -->
<g id="node1" class="node">
<title>a0</title>
<ellipse fill="none" stroke="#000000" cx="99" cy="-234" rx="27" ry="18"/>
<text text-anchor="middle" x="99" y="-229.8" font-family="Times,serif" font-size="14.00" fill="#000000">·</text>
</g>
<!-- a1 -->
<g id="node2" class="node">
<title>a1</title>
<ellipse fill="none" stroke="#000000" cx="63" cy="-162" rx="27" ry="18"/>
<text text-anchor="middle" x="63" y="-157.8" font-family="Times,serif" font-size="14.00" fill="#000000">*</text>
</g>
<!-- a0&#45;&gt;a1 -->
<g id="edge1" class="edge">
<title>a0-&gt;a1</title>
<path fill="none" stroke="#000000" d="M90.2854,-216.5708C86.0403,-208.0807 80.8464,-197.6929 76.1337,-188.2674"/>
<polygon fill="#000000" stroke="#000000" points="79.237,-186.6477 71.6343,-179.2687 72.976,-189.7782 79.237,-186.6477"/>
</g>
<!-- a2 -->
<g id="node3" class="node">
<title>a2</title>
<ellipse fill="none" stroke="#000000" cx="135" cy="-162" rx="27" ry="18"/>
<text text-anchor="middle" x="135" y="-157.8" font-family="Times,serif" font-size="14.00" fill="#000000">·</text>
</g>
<!-- a0&#45;&gt;a2 -->
<g id="edge2" class="edge">
<title>a0-&gt;a2</title>
<path fill="none" stroke="#000000" d="M107.7146,-216.5708C111.9597,-208.0807 117.1536,-197.6929 121.8663,-188.2674"/>
<polygon fill="#000000" stroke="#000000" points="125.024,-189.7782 126.3657,-179.2687 118.763,-186.6477 125.024,-189.7782"/>
</g>
<!-- a3 -->
<g id="node4" class="node">
<title>a3</title>
<ellipse fill="none" stroke="#000000" cx="63" cy="-90" rx="27" ry="18"/>
<text text-anchor="middle" x="63" y="-85.8" font-family="Times,serif" font-size="14.00" fill="#000000">·</text>
</g>
<!-- a1&#45;&gt;a3 -->
<g id="edge3" class="edge">
<title>a1-&gt;a3</title>
<path fill="none" stroke="#000000" d="M63,-143.8314C63,-136.131 63,-126.9743 63,-118.4166"/>
<polygon fill="#000000" stroke="#000000" points="66.5001,-118.4132 63,-108.4133 59.5001,-118.4133 66.5001,-118.4132"/>
</g>
<!-- b0 -->
<g id="node5" class="node">
<title>b0</title>
<ellipse fill="none" stroke="#000000" cx="135" cy="-90" rx="27" ry="18"/>
<text text-anchor="middle" x="135" y="-85.8" font-family="Times,serif" font-size="14.00" fill="#000000">b</text>
</g>
<!-- a2&#45;&gt;b0 -->
<g id="edge4" class="edge">
<title>a2-&gt;b0</title>
<path fill="none" stroke="#000000" d="M135,-143.8314C135,-136.131 135,-126.9743 135,-118.4166"/>
<polygon fill="#000000" stroke="#000000" points="138.5001,-118.4132 135,-108.4133 131.5001,-118.4133 138.5001,-118.4132"/>
</g>
<!-- a4 -->
<g id="node6" class="node">
<title>a4</title>
<ellipse fill="none" stroke="#000000" cx="207" cy="-90" rx="27" ry="18"/>
<text text-anchor="middle" x="207" y="-85.8" font-family="Times,serif" font-size="14.00" fill="#000000">|</text>
</g>
<!-- a2&#45;&gt;a4 -->
<g id="edge5" class="edge">
<title>a2-&gt;a4</title>
<path fill="none" stroke="#000000" d="M150.2693,-146.7307C160.197,-136.803 173.3153,-123.6847 184.4363,-112.5637"/>
<polygon fill="#000000" stroke="#000000" points="187.1564,-114.7933 191.7527,-105.2473 182.2067,-109.8436 187.1564,-114.7933"/>
</g>
<!-- b1 -->
<g id="node7" class="node">
<title>b1</title>
<ellipse fill="none" stroke="#000000" cx="27" cy="-18" rx="27" ry="18"/>
<text text-anchor="middle" x="27" y="-13.8" font-family="Times,serif" font-size="14.00" fill="#000000">a</text>
</g>
<!-- a3&#45;&gt;b1 -->
<g id="edge6" class="edge">
<title>a3-&gt;b1</title>
<path fill="none" stroke="#000000" d="M54.2854,-72.5708C50.0403,-64.0807 44.8464,-53.6929 40.1337,-44.2674"/>
<polygon fill="#000000" stroke="#000000" points="43.237,-42.6477 35.6343,-35.2687 36.976,-45.7782 43.237,-42.6477"/>
</g>
<!-- b2 -->
<g id="node8" class="node">
<title>b2</title>
<ellipse fill="none" stroke="#000000" cx="99" cy="-18" rx="27" ry="18"/>
<text text-anchor="middle" x="99" y="-13.8" font-family="Times,serif" font-size="14.00" fill="#000000">b</text>
</g>
<!-- a3&#45;&gt;b2 -->
<g id="edge7" class="edge">
<title>a3-&gt;b2</title>
<path fill="none" stroke="#000000" d="M71.7146,-72.5708C75.9597,-64.0807 81.1536,-53.6929 85.8663,-44.2674"/>
<polygon fill="#000000" stroke="#000000" points="89.024,-45.7782 90.3657,-35.2687 82.763,-42.6477 89.024,-45.7782"/>
</g>
<!-- b3 -->
<g id="node9" class="node">
<title>b3</title>
<ellipse fill="none" stroke="#000000" cx="189" cy="-18" rx="27" ry="18"/>
<text text-anchor="middle" x="189" y="-13.8" font-family="Times,serif" font-size="14.00" fill="#000000">a</text>
</g>
<!-- a4&#45;&gt;b3 -->
<g id="edge8" class="edge">
<title>a4-&gt;b3</title>
<path fill="none" stroke="#000000" d="M202.5506,-72.2022C200.5602,-64.2406 198.1668,-54.6671 195.9489,-45.7957"/>
<polygon fill="#000000" stroke="#000000" points="199.2816,-44.6951 193.4606,-35.8425 192.4906,-46.3929 199.2816,-44.6951"/>
</g>
<!-- b4 -->
<g id="node10" class="node">
<title>b4</title>
<ellipse fill="none" stroke="#000000" cx="261" cy="-18" rx="27" ry="18"/>
<text text-anchor="middle" x="261" y="-13.8" font-family="Times,serif" font-size="14.00" fill="#000000">b</text>
</g>
<!-- a4&#45;&gt;b4 -->
<g id="edge9" class="edge">
<title>a4-&gt;b4</title>
<path fill="none" stroke="#000000" d="M219.2534,-73.6621C226.1577,-64.4564 234.9177,-52.7764 242.6285,-42.4953"/>
<polygon fill="#000000" stroke="#000000" points="245.595,-44.3733 248.7951,-34.2733 239.995,-40.1733 245.595,-44.3733"/>
</g>
</g>
</svg>